<?xml version="1.0" encoding="utf-8"?>
<!DOCTYPE svg PUBLIC "-//W3C//DTD SVG 1.1//EN" "http://www.w3.org/Graphics/SVG/1.1/DTD/svg11.dtd">
<svg xmlns="http://www.w3.org/2000/svg" xmlns:xlink="http://www.w3.org/1999/xlink" version="1.1" baseProfile="full" width="442.5" height="181.5" viewBox="0 0 442.50 181.50" enable-background="new 0 0 442.50 181.50" xml:space="preserve">
	<rect x="0" y="3.05176e-005" fill="#5190F4" fill-opacity="1" stroke-width="0.2" stroke-linejoin="round" width="442.5" height="181.5"/>
	<g>
		<path fill="#FFFFFF" fill-opacity="1" stroke-linejoin="round" d="M 254.6,47.3001L 251.66,58.5L 248.885,58.5L 247.04,51.315C 246.941,50.94 246.881,50.5209 246.86,50.0575L 246.83,50.0575C 246.783,50.5675 246.716,50.9867 246.627,51.315L 244.735,58.5L 241.842,58.5L 238.92,47.3001L 241.657,47.3001L 243.225,54.76C 243.291,55.0767 243.34,55.5034 243.37,56.0401L 243.417,56.0401C 243.437,55.6384 243.512,55.2009 243.642,54.7276L 245.66,47.3001L 248.342,47.3001L 250.165,54.8225C 250.231,55.0976 250.291,55.4984 250.342,56.0251L 250.372,56.0251C 250.394,55.6134 250.449,55.1967 250.537,54.7751L 252.072,47.3001L 254.6,47.3001 Z "/>
		<path fill="#FFFFFF" fill-opacity="1" stroke-linejoin="round" d="M 263.4,58.5L 261,58.5L 261,54C 261,52.8401 260.577,52.26 259.732,52.26C 259.299,52.26 258.948,52.4225 258.681,52.7476C 258.413,53.0725 258.28,53.485 258.28,53.985L 258.28,58.5L 255.88,58.5L 255.88,46.6601L 258.28,46.6601L 258.28,51.7525L 258.31,51.7525C 258.903,50.8109 259.709,50.3401 260.727,50.3401C 262.509,50.3401 263.4,51.4292 263.4,53.6076L 263.4,58.5 Z "/>
		<path fill="#FFFFFF" fill-opacity="1" stroke-linejoin="round" d="M 272.2,58.5L 269.8,58.5L 269.8,57.3075L 269.767,57.3075C 269.225,58.2092 268.424,58.6601 267.362,58.6601C 266.579,58.6601 265.963,58.4413 265.513,58.0038C 265.064,57.5663 264.84,56.9826 264.84,56.2525C 264.84,54.7108 265.767,53.8209 267.622,53.5826L 269.815,53.2951C 269.815,52.4984 269.337,52.1001 268.382,52.1001C 267.421,52.1001 266.506,52.3667 265.64,52.9001L 265.64,51.0201C 265.988,50.8401 266.465,50.6817 267.071,50.5451C 267.677,50.4084 268.228,50.3401 268.725,50.3401C 271.041,50.3401 272.2,51.4734 272.2,53.74L 272.2,58.5 Z M 269.815,55.2575L 269.815,54.735L 268.32,54.9175C 267.493,55.0175 267.08,55.3684 267.08,55.9701C 267.08,56.2417 267.18,56.4646 267.381,56.6388C 267.582,56.813 267.854,56.9001 268.197,56.9001C 268.676,56.9001 269.065,56.745 269.365,56.4351C 269.665,56.125 269.815,55.7326 269.815,55.2575 Z "/>
		<path fill="#FFFFFF" fill-opacity="1" stroke-linejoin="round" d="M 278.76,58.3401C 278.403,58.5534 277.866,58.6601 277.15,58.6601C 275.45,58.6601 274.6,57.7525 274.6,55.9375L 274.6,52.26L 273.32,52.26L 273.32,50.5L 274.6,50.5L 274.6,48.7951L 277,48.1001L 277,50.5L 278.76,50.5L 278.76,52.26L 277,52.26L 277,55.49C 277,56.3234 277.324,56.74 277.972,56.74C 278.227,56.74 278.49,56.6867 278.76,56.58L 278.76,58.3401 Z "/>
		<path fill="#FFFFFF" fill-opacity="1" stroke-linejoin="round" d="M 296.36,50.5L 294.06,58.5L 291.47,58.5L 290.292,53.8125C 290.214,53.5009 290.17,53.1601 290.16,52.7901L 290.112,52.7901C 290.076,53.1967 290.023,53.5276 289.955,53.7826L 288.692,58.5L 286.135,58.5L 283.88,50.5L 286.392,50.5L 287.492,55.7201C 287.544,55.9651 287.582,56.2617 287.607,56.61L 287.655,56.61C 287.681,56.245 287.728,55.9375 287.795,55.6875L 289.167,50.5L 291.515,50.5L 292.747,55.7176C 292.779,55.8492 292.816,56.1517 292.857,56.625L 292.912,56.625C 292.939,56.3234 292.98,56.0209 293.037,55.7176L 294.075,50.5L 296.36,50.5 Z "/>
		<path fill="#FFFFFF" fill-opacity="1" stroke-linejoin="round" d="M 298.84,49.2201C 298.441,49.2201 298.115,49.0955 297.861,48.8463C 297.607,48.5971 297.48,48.2909 297.48,47.9275C 297.48,47.5559 297.607,47.2517 297.861,47.015C 298.115,46.7784 298.441,46.6601 298.84,46.6601C 299.243,46.6601 299.57,46.7784 299.822,47.015C 300.074,47.2517 300.2,47.5559 300.2,47.9275C 300.2,48.3059 300.074,48.6159 299.822,48.8576C 299.57,49.0992 299.243,49.2201 298.84,49.2201 Z M 300.04,58.5L 297.64,58.5L 297.64,50.5L 300.04,50.5L 300.04,58.5 Z "/>
		<rect x="302.12" y="46.6601" fill="#FFFFFF" fill-opacity="1" stroke-linejoin="round" width="2.39999" height="11.84"/>
		<rect x="306.6" y="46.6601" fill="#FFFFFF" fill-opacity="1" stroke-linejoin="round" width="2.39999" height="11.84"/>
		<path fill="#FFFFFF" fill-opacity="1" stroke-linejoin="round" d="M 323.08,50.5L 319.852,59.2C 319.082,61.2934 317.923,62.3401 316.375,62.3401C 315.785,62.3401 315.3,62.2334 314.92,62.0201L 314.92,60.1001C 315.24,60.3134 315.587,60.4201 315.962,60.4201C 316.58,60.4201 317.011,60.1192 317.255,59.5175L 317.665,58.5201L 314.44,50.5L 317.172,50.5L 318.645,55.3951C 318.736,55.7 318.808,56.0592 318.86,56.4726L 318.89,56.4726C 318.936,56.1692 319.021,55.8159 319.145,55.4126L 320.632,50.5L 323.08,50.5 Z "/>
		<path fill="#FFFFFF" fill-opacity="1" stroke-linejoin="round" d="M 328,58.6601C 326.67,58.6601 325.624,58.2896 324.862,57.5488C 324.1,56.808 323.72,55.8017 323.72,54.5301C 323.72,53.2184 324.115,52.1922 324.905,51.4513C 325.695,50.7105 326.763,50.3401 328.11,50.3401C 329.435,50.3401 330.474,50.7105 331.228,51.4513C 331.983,52.1922 332.36,53.1725 332.36,54.3925C 332.36,55.7092 331.971,56.7497 331.193,57.5138C 330.416,58.278 329.351,58.6601 328,58.6601 Z M 328.067,52.26C 327.5,52.26 327.061,52.455 326.748,52.8451C 326.436,53.235 326.28,53.7867 326.28,54.5C 326.28,55.9934 326.88,56.74 328.082,56.74C 329.227,56.74 329.8,55.9734 329.8,54.44C 329.8,52.9867 329.222,52.26 328.067,52.26 Z "/>
		<path fill="#FFFFFF" fill-opacity="1" stroke-linejoin="round" d="M 341.48,58.5L 339.08,58.5L 339.08,57.2151L 339.04,57.2151C 338.43,58.1784 337.613,58.6601 336.59,58.6601C 334.73,58.6601 333.8,57.5425 333.8,55.3075L 333.8,50.5L 336.2,50.5L 336.2,55.0625C 336.2,56.1809 336.66,56.74 337.58,56.74C 338.035,56.74 338.398,56.5867 338.671,56.2801C 338.943,55.9734 339.08,55.5567 339.08,55.0301L 339.08,50.5L 341.48,50.5L 341.48,58.5 Z "/>
		<path fill="#FFFFFF" fill-opacity="1" stroke-linejoin="round" d="M 348.68,52.6626C 348.386,52.5009 348.044,52.4201 347.652,52.4201C 347.122,52.4201 346.708,52.6188 346.408,53.0163C 346.109,53.4138 345.96,53.955 345.96,54.64L 345.96,58.5L 343.56,58.5L 343.56,50.5L 345.96,50.5L 345.96,51.9201L 345.99,51.9201C 346.376,50.8667 347.072,50.3401 348.077,50.3401C 348.334,50.3401 348.535,50.3709 348.68,50.4325L 348.68,52.6626 Z "/>
		<path fill="#FFFFFF" fill-opacity="1" stroke-linejoin="round" d="M 361.16,58.5L 358.76,58.5L 358.76,57.3075L 358.727,57.3075C 358.185,58.2092 357.384,58.6601 356.322,58.6601C 355.539,58.6601 354.923,58.4413 354.473,58.0038C 354.024,57.5663 353.8,56.9826 353.8,56.2525C 353.8,54.7108 354.727,53.8209 356.582,53.5826L 358.775,53.2951C 358.775,52.4984 358.297,52.1001 357.342,52.1001C 356.38,52.1001 355.466,52.3667 354.6,52.9001L 354.6,51.0201C 354.948,50.8401 355.425,50.6817 356.031,50.5451C 356.637,50.4084 357.188,50.3401 357.685,50.3401C 360.001,50.3401 361.16,51.4734 361.16,53.74L 361.16,58.5 Z M 358.775,55.2575L 358.775,54.735L 357.28,54.9175C 356.453,55.0175 356.04,55.3684 356.04,55.9701C 356.04,56.2417 356.14,56.4646 356.341,56.6388C 356.542,56.813 356.814,56.9001 357.157,56.9001C 357.635,56.9001 358.025,56.745 358.325,56.4351C 358.625,56.125 358.775,55.7326 358.775,55.2575 Z "/>
		<path fill="#FFFFFF" fill-opacity="1" stroke-linejoin="round" d="M 365.512,57.505L 365.48,57.505L 365.48,62.1801L 363.08,62.1801L 363.08,50.5L 365.48,50.5L 365.48,51.7675L 365.512,51.7675C 366.129,50.8159 366.995,50.3401 368.112,50.3401C 369.16,50.3401 369.971,50.6925 370.542,51.3976C 371.114,52.1026 371.4,53.0617 371.4,54.2751C 371.4,55.5967 371.066,56.658 370.4,57.4588C 369.733,58.2597 368.846,58.6601 367.74,58.6601C 366.765,58.6601 366.022,58.2751 365.512,57.505 Z M 365.442,54.2951L 365.442,54.9175C 365.442,55.4543 365.59,55.8921 365.885,56.2313C 366.18,56.5705 366.567,56.74 367.047,56.74C 367.615,56.74 368.056,56.5288 368.37,56.1063C 368.683,55.6838 368.84,55.0851 368.84,54.3101C 368.84,52.9434 368.286,52.26 367.18,52.26C 366.67,52.26 366.253,52.4459 365.928,52.8175C 365.604,53.1892 365.442,53.6817 365.442,54.2951 Z "/>
		<path fill="#FFFFFF" fill-opacity="1" stroke-linejoin="round" d="M 375.432,57.505L 375.4,57.505L 375.4,62.1801L 373,62.1801L 373,50.5L 375.4,50.5L 375.4,51.7675L 375.432,51.7675C 376.049,50.8159 376.915,50.3401 378.032,50.3401C 379.081,50.3401 379.891,50.6925 380.462,51.3976C 381.034,52.1026 381.32,53.0617 381.32,54.2751C 381.32,55.5967 380.986,56.658 380.32,57.4588C 379.653,58.2597 378.766,58.6601 377.66,58.6601C 376.685,58.6601 375.942,58.2751 375.432,57.505 Z M 375.362,54.2951L 375.362,54.9175C 375.362,55.4543 375.51,55.8921 375.805,56.2313C 376.1,56.5705 376.487,56.74 376.967,56.74C 377.535,56.74 377.976,56.5288 378.29,56.1063C 378.603,55.6838 378.76,55.0851 378.76,54.3101C 378.76,52.9434 378.206,52.26 377.1,52.26C 376.59,52.26 376.173,52.4459 375.848,52.8175C 375.524,53.1892 375.362,53.6817 375.362,54.2951 Z "/>
		<path fill="#FFFFFF" fill-opacity="1" stroke-linejoin="round" d="M 395.24,58.5L 392.68,58.5L 392.68,57.3326L 392.65,57.3326C 392.095,58.2176 391.28,58.6601 390.205,58.6601C 389.218,58.6601 388.424,58.3101 387.822,57.61C 387.221,56.9101 386.92,55.9325 386.92,54.6775C 386.92,53.3659 387.251,52.315 387.915,51.5251C 388.578,50.735 389.446,50.3401 390.52,50.3401C 391.538,50.3401 392.248,50.7201 392.65,51.48L 392.68,51.48L 392.68,46.6601L 395.24,46.6601L 395.24,58.5 Z M 392.727,54.6076L 392.727,54.0226C 392.727,53.5159 392.582,53.0955 392.291,52.7613C 392,52.4272 391.622,52.26 391.157,52.26C 390.63,52.26 390.219,52.4688 389.923,52.8863C 389.628,53.3038 389.48,53.8775 389.48,54.6076C 389.48,55.2909 389.623,55.8172 389.908,56.1863C 390.194,56.5555 390.59,56.74 391.095,56.74C 391.576,56.74 391.969,56.5451 392.272,56.1551C 392.576,55.765 392.727,55.2492 392.727,54.6076 Z "/>
		<path fill="#FFFFFF" fill-opacity="1" stroke-linejoin="round" d="M 401.12,58.6601C 399.79,58.6601 398.744,58.2896 397.982,57.5488C 397.221,56.808 396.84,55.8017 396.84,54.5301C 396.84,53.2184 397.235,52.1922 398.025,51.4513C 398.815,50.7105 399.883,50.3401 401.23,50.3401C 402.555,50.3401 403.594,50.7105 404.348,51.4513C 405.103,52.1922 405.48,53.1725 405.48,54.3925C 405.48,55.7092 405.091,56.7497 404.313,57.5138C 403.536,58.278 402.471,58.6601 401.12,58.6601 Z M 401.187,52.26C 400.62,52.26 400.181,52.455 399.868,52.8451C 399.556,53.235 399.4,53.7867 399.4,54.5C 399.4,55.9934 400,56.74 401.202,56.74C 402.347,56.74 402.92,55.9734 402.92,54.44C 402.92,52.9867 402.342,52.26 401.187,52.26 Z "/>
		<path fill="#FFFFFF" fill-opacity="1" stroke-linejoin="round" d="M 408.047,55.3001C 407.994,55.1617 407.953,55.0059 407.923,54.8326C 407.894,54.6592 407.88,54.495 407.88,54.3401C 407.88,54.0951 407.904,53.8717 407.952,53.6701C 408.001,53.4684 408.073,53.278 408.168,53.0988C 408.264,52.9196 408.385,52.7492 408.53,52.5876C 408.675,52.4259 408.843,52.265 409.035,52.105C 409.238,51.9334 409.416,51.7746 409.568,51.6288C 409.721,51.4829 409.851,51.3367 409.958,51.19C 410.066,51.0434 410.146,50.8913 410.2,50.7338C 410.253,50.5763 410.28,50.4017 410.28,50.2101C 410.28,50.0451 410.25,49.8921 410.191,49.7513C 410.132,49.6105 410.048,49.4892 409.938,49.3875C 409.829,49.2859 409.696,49.2059 409.538,49.1476C 409.381,49.0892 409.206,49.0601 409.012,49.0601C 408.596,49.0601 408.163,49.1526 407.715,49.3376C 407.266,49.5226 406.841,49.8034 406.44,50.1801L 406.44,47.8526C 406.843,47.6142 407.283,47.4359 407.758,47.3175C 408.234,47.1992 408.726,47.14 409.235,47.14C 409.721,47.14 410.174,47.1934 410.592,47.3001C 411.011,47.4067 411.376,47.575 411.687,47.8051C 411.999,48.0351 412.242,48.3284 412.417,48.6851C 412.592,49.0417 412.68,49.4709 412.68,49.9726C 412.68,50.2909 412.644,50.5793 412.572,50.8376C 412.501,51.0959 412.396,51.3396 412.258,51.5688C 412.121,51.798 411.95,52.018 411.746,52.2288C 411.542,52.4396 411.306,52.6576 411.04,52.8825C 410.861,53.0342 410.704,53.1751 410.568,53.3051C 410.433,53.4351 410.32,53.5642 410.231,53.6925C 410.142,53.8209 410.074,53.9567 410.028,54.1001C 409.983,54.2434 409.96,54.4059 409.96,54.5876C 409.96,54.7126 409.976,54.8405 410.01,54.9713C 410.043,55.1021 410.089,55.2117 410.147,55.3001L 408.047,55.3001 Z M 409.172,58.6601C 408.756,58.6601 408.409,58.5359 408.132,58.2876C 407.857,58.0292 407.72,57.7242 407.72,57.3726C 407.72,57.0109 407.857,56.7084 408.132,56.4651C 408.409,56.2217 408.756,56.1001 409.172,56.1001C 409.582,56.1001 409.923,56.2217 410.195,56.4651C 410.465,56.7034 410.6,57.0059 410.6,57.3726C 410.6,57.7442 410.467,58.0517 410.202,58.2951C 409.931,58.5384 409.587,58.6601 409.172,58.6601 Z "/>
		<path fill="#FFFFFF" fill-opacity="1" stroke-linejoin="round" d="M 313.72,72.1001L 313.552,72.9001L 311.492,72.9001L 311.017,75.3001L 313.24,75.3001L 313.032,76.1001L 310.867,76.1001L 310.225,79.14L 309.24,79.14L 309.865,76.1001L 307.957,76.1001L 307.337,79.14L 306.36,79.14L 306.98,76.1001L 304.92,76.1001L 305.06,75.3001L 307.147,75.3001L 307.612,72.9001L 305.4,72.9001L 305.565,72.1001L 307.775,72.1001L 308.417,68.9001L 309.4,68.9001L 308.755,72.1001L 310.667,72.1001L 311.32,68.9001L 312.28,68.9001L 311.645,72.1001L 313.72,72.1001 Z M 310.525,72.9001L 308.61,72.9001L 308.102,75.3001L 310.045,75.3001L 310.525,72.9001 Z "/>
		<path fill="#FFFFFF" fill-opacity="1" stroke-linejoin="round" d="M 315.64,80.1001L 315.64,68.9001L 318.855,68.9001C 319.833,68.9001 320.608,69.1359 321.181,69.6076C 321.753,70.0793 322.04,70.6934 322.04,71.4501C 322.04,72.0817 321.868,72.6309 321.526,73.0976C 321.183,73.5642 320.711,73.8959 320.11,74.0926L 320.11,74.125C 320.888,74.2134 321.511,74.4992 321.978,74.9826C 322.446,75.4659 322.68,76.0951 322.68,76.8701C 322.68,77.8317 322.329,78.6105 321.627,79.2063C 320.926,79.8022 320.04,80.1001 318.972,80.1001L 315.64,80.1001 Z M 316.92,70.0201L 316.92,73.7001L 318.272,73.7001C 318.995,73.7001 319.564,73.5238 319.978,73.1713C 320.393,72.8188 320.6,72.3217 320.6,71.6801C 320.6,70.5734 319.879,70.0201 318.437,70.0201L 316.92,70.0201 Z M 316.92,74.8201L 316.92,78.9801L 318.747,78.9801C 319.537,78.9801 320.15,78.7921 320.586,78.4163C 321.022,78.0405 321.24,77.5242 321.24,76.8676C 321.24,75.5026 320.316,74.8201 318.467,74.8201L 316.92,74.8201 Z "/>
		<path fill="#FFFFFF" fill-opacity="1" stroke-linejoin="round" d="M 331,76.4201L 325.4,76.4201C 325.421,77.2884 325.662,77.9588 326.122,78.4313C 326.582,78.9038 327.215,79.14 328.022,79.14C 328.929,79.14 329.761,78.8734 330.52,78.3401L 330.52,79.5126C 329.82,80.0109 328.893,80.26 327.74,80.26C 326.613,80.26 325.728,79.8992 325.085,79.1776C 324.441,78.4559 324.12,77.4401 324.12,76.13C 324.12,74.8934 324.468,73.8859 325.163,73.1076C 325.859,72.3293 326.724,71.9401 327.757,71.9401C 328.789,71.9401 329.587,72.2763 330.152,72.9488C 330.717,73.6213 331,74.5559 331,75.7526L 331,76.4201 Z M 329.72,75.3001C 329.715,74.5934 329.537,74.0434 329.187,73.6501C 328.837,73.2567 328.35,73.0601 327.727,73.0601C 327.125,73.0601 326.615,73.2668 326.195,73.6801C 325.775,74.0934 325.516,74.6334 325.417,75.3001L 329.72,75.3001 Z "/>
		<path fill="#FFFFFF" fill-opacity="1" stroke-linejoin="round" d="M 339.8,79.505C 339.8,82.4617 338.412,83.9401 335.637,83.9401C 334.662,83.9401 333.81,83.7451 333.08,83.3551L 333.08,82.0201C 333.966,82.5534 334.811,82.8201 335.615,82.8201C 337.551,82.8201 338.52,81.7417 338.52,79.5851L 338.52,78.6851L 338.49,78.6851C 337.881,79.7351 336.966,80.26 335.745,80.26C 334.751,80.26 333.952,79.9068 333.347,79.2001C 332.742,78.4934 332.44,77.5451 332.44,76.3551C 332.44,75.005 332.766,73.9317 333.417,73.135C 334.069,72.3384 334.961,71.9401 336.095,71.9401C 337.17,71.9401 337.967,72.3867 338.487,73.2801L 338.52,73.2801L 338.52,72.1001L 339.8,72.1001L 339.8,79.505 Z M 338.52,76.4751L 338.52,75.3201C 338.52,74.7001 338.304,74.1684 337.872,73.7251C 337.441,73.2818 336.903,73.0601 336.26,73.0601C 335.466,73.0601 334.845,73.3413 334.395,73.9038C 333.945,74.4663 333.72,75.2542 333.72,76.2675C 333.72,77.1393 333.936,77.8359 334.367,78.3576C 334.799,78.8792 335.37,79.14 336.08,79.14C 336.801,79.14 337.388,78.8905 337.841,78.3913C 338.293,77.8921 338.52,77.2534 338.52,76.4751 Z "/>
		<path fill="#FFFFFF" fill-opacity="1" stroke-linejoin="round" d="M 342.992,70.0201C 342.772,70.0201 342.585,69.9451 342.431,69.7951C 342.277,69.6451 342.2,69.455 342.2,69.2251C 342.2,68.9934 342.277,68.8013 342.431,68.6488C 342.585,68.4963 342.772,68.4201 342.992,68.4201C 343.217,68.4201 343.408,68.4963 343.565,68.6488C 343.721,68.8013 343.8,68.9934 343.8,69.2251C 343.8,69.4451 343.721,69.6326 343.565,69.7876C 343.408,69.9425 343.217,70.0201 342.992,70.0201 Z M 343.64,80.1001L 342.36,80.1001L 342.36,72.1001L 343.64,72.1001L 343.64,80.1001 Z "/>
		<path fill="#FFFFFF" fill-opacity="1" stroke-linejoin="round" d="M 352.92,80.1001L 351.64,80.1001L 351.64,75.5826C 351.64,73.9009 351.007,73.0601 349.742,73.0601C 349.089,73.0601 348.548,73.2984 348.121,73.7751C 347.693,74.2517 347.48,74.8542 347.48,75.5826L 347.48,80.1001L 346.2,80.1001L 346.2,72.1001L 347.48,72.1001L 347.48,73.4976L 347.512,73.4976C 348.126,72.4593 349.013,71.9401 350.175,71.9401C 351.063,71.9401 351.743,72.2217 352.213,72.7851C 352.684,73.3484 352.92,74.1618 352.92,75.2251L 352.92,80.1001 Z "/>
		<path fill="#FFFFFF" fill-opacity="1" stroke-linejoin="round" d="M 362.04,70.0201L 358.84,70.0201L 358.84,80.1001L 357.56,80.1001L 357.56,70.0201L 354.36,70.0201L 354.36,68.9001L 362.04,68.9001L 362.04,70.0201 Z "/>
		<path fill="#FFFFFF" fill-opacity="1" stroke-linejoin="round" d="M 365.432,80.26C 364.256,80.26 363.316,79.8888 362.613,79.1463C 361.911,78.4038 361.56,77.4192 361.56,76.1925C 361.56,74.8576 361.925,73.8151 362.656,73.0651C 363.387,72.3151 364.375,71.9401 365.62,71.9401C 366.806,71.9401 367.733,72.3047 368.4,73.0338C 369.066,73.763 369.4,74.7751 369.4,76.0701C 369.4,77.3367 369.041,78.3517 368.322,79.1151C 367.604,79.8784 366.641,80.26 365.432,80.26 Z M 365.527,73.0601C 364.699,73.0601 364.044,73.3338 363.562,73.8813C 363.081,74.4288 362.84,75.1834 362.84,76.1451C 362.84,77.0717 363.083,77.8026 363.571,78.3376C 364.058,78.8726 364.711,79.14 365.527,79.14C 366.361,79.14 367.001,78.878 367.448,78.3538C 367.896,77.8296 368.12,77.0834 368.12,76.1151C 368.12,75.1367 367.896,74.383 367.448,73.8538C 367.001,73.3246 366.361,73.0601 365.527,73.0601 Z "/>
		<path fill="#FFFFFF" fill-opacity="1" stroke-linejoin="round" d="M 378.36,80.1001L 377.08,80.1001L 377.08,78.6701L 377.05,78.6701C 376.456,79.7301 375.541,80.26 374.305,80.26C 373.301,80.26 372.5,79.9042 371.9,79.1925C 371.3,78.4809 371,77.5126 371,76.2876C 371,74.9726 371.332,73.9192 371.997,73.1276C 372.662,72.3359 373.548,71.9401 374.655,71.9401C 375.751,71.9401 376.549,72.3867 377.047,73.2801L 377.08,73.2801L 377.08,68.26L 378.36,68.26L 378.36,80.1001 Z M 377.08,76.4751L 377.08,75.3201C 377.08,74.6901 376.865,74.1559 376.436,73.7176C 376.007,73.2792 375.463,73.0601 374.805,73.0601C 374.021,73.0601 373.405,73.3401 372.955,73.9001C 372.505,74.4601 372.28,75.2342 372.28,76.2226C 372.28,77.1242 372.496,77.8359 372.927,78.3576C 373.359,78.8792 373.938,79.14 374.665,79.14C 375.381,79.14 375.963,78.888 376.41,78.3838C 376.856,77.8797 377.08,77.2434 377.08,76.4751 Z "/>
		<path fill="#FFFFFF" fill-opacity="1" stroke-linejoin="round" d="M 386.68,80.1001L 385.4,80.1001L 385.4,78.7801L 385.367,78.7801C 384.802,79.7668 383.969,80.26 382.867,80.26C 382.057,80.26 381.423,80.0484 380.966,79.625C 380.508,79.2018 380.28,78.6393 380.28,77.9375C 380.28,76.4359 381.174,75.5625 382.962,75.3175L 385.4,74.9801C 385.4,73.7001 384.842,73.0601 383.727,73.0601C 382.749,73.0601 381.866,73.38 381.08,74.0201L 381.08,72.6975C 381.875,72.1925 382.791,71.9401 383.827,71.9401C 385.729,71.9401 386.68,72.9317 386.68,74.9151L 386.68,80.1001 Z M 385.4,75.9401L 383.412,76.2101C 382.801,76.2934 382.339,76.4422 382.027,76.6563C 381.716,76.8705 381.56,77.2492 381.56,77.7926C 381.56,78.1892 381.703,78.513 381.991,78.7638C 382.278,79.0147 382.661,79.14 383.137,79.14C 383.792,79.14 384.333,78.9142 384.76,78.4626C 385.186,78.0109 385.4,77.4392 385.4,76.7476L 385.4,75.9401 Z "/>
		<path fill="#FFFFFF" fill-opacity="1" stroke-linejoin="round" d="M 395.48,72.1001L 391.817,81.3951C 391.172,83.0917 390.266,83.9401 389.1,83.9401C 388.773,83.9401 388.5,83.9051 388.28,83.8351L 388.28,82.6601C 388.55,82.7668 388.797,82.8201 389.022,82.8201C 389.654,82.8201 390.127,82.4276 390.442,81.6425L 391.07,80.1001L 387.96,72.1001L 389.382,72.1001L 391.53,78.2701C 391.555,78.3484 391.609,78.5517 391.692,78.88L 391.74,78.88C 391.765,78.755 391.816,78.5567 391.895,78.2851L 394.15,72.1001L 395.48,72.1001 Z "/>
		<path fill="#FFFFFF" fill-opacity="1" stroke-linejoin="round" d="M 396.352,80.26C 396.11,80.26 395.905,80.1738 395.735,80.0013C 395.565,79.8288 395.48,79.6234 395.48,79.385C 395.48,79.1451 395.565,78.9375 395.735,78.7626C 395.905,78.5876 396.11,78.5 396.352,78.5C 396.599,78.5 396.808,78.5876 396.981,78.7626C 397.153,78.9375 397.24,79.1451 397.24,79.385C 397.24,79.6234 397.153,79.8288 396.981,80.0013C 396.808,80.1738 396.599,80.26 396.352,80.26 Z "/>
		<rect x="404.386" y="65.9134" fill="#FFFFFF" fill-opacity="1" stroke-linejoin="round" width="2.23999" height="18.6666"/>
	</g>
</svg>
