<?xml version="1.0" encoding="utf-8"?>
<!DOCTYPE svg PUBLIC "-//W3C//DTD SVG 1.1//EN" "http://www.w3.org/Graphics/SVG/1.1/DTD/svg11.dtd">
<svg xmlns="http://www.w3.org/2000/svg" xmlns:xlink="http://www.w3.org/1999/xlink" version="1.1" baseProfile="full" width="136.477" height="137.023" viewBox="0 0 136.48 137.02" enable-background="new 0 0 136.48 137.02" xml:space="preserve">
	<g>
		<path fill="#5AB3F0" fill-opacity="1" stroke-width="0.2" stroke-linejoin="round" d="M 136.42,25.7546C 136.42,25.7546 122.546,41.3639 116.174,43.8713C 107.406,47.3209 103.011,47.1856 97.0897,47.2311C 96.7515,47.2337 96.4596,60.5958 96.3858,65.6698C 96.312,70.7437 96.2558,80.8556 96.2558,80.8556C 96.2558,80.8556 94.6299,89.3238 91.4888,91.3773C 88.3478,93.4307 87.5153,95.1283 84.5343,95.9967C 81.5533,96.8652 56.8767,95.9063 56.8767,95.9063L 29.267,97.4713C 29.267,97.4713 13.3028,103.344 6.45926,115.065C -0.384277,126.786 -0.109314,134.088 0.409668,135.606C 0.92865,137.124 60.9675,136.846 60.9675,136.846L 101.871,137.023C 101.871,137.023 114.365,137.632 125.775,126.044C 138.528,113.094 136.045,91.473 136.045,88.3284C 136.045,87.4431 136.668,26.0135 136.42,25.7546 Z "/>
		<path fill="#5190F4" fill-opacity="1" stroke-width="0.2" stroke-linejoin="round" d="M 0,110.774C -3.05176e-005,110.774 12.7388,95.9635 18.9279,94.4503C 25.1171,92.9371 33.7793,88.9495 41.325,89.4303C 42.1145,89.4807 41.177,55.4962 41.177,55.4962C 41.177,55.4962 41.9029,47.2606 48.0782,43.9436C 54.2535,40.6266 48.8544,42.2466 53.4704,41.4219C 58.0865,40.5972 101.263,40.1527 101.263,40.1527C 104.987,40.6315 122.871,35.0825 129.519,23.6163C 136.481,11.6094 135.916,7.95978 136.222,0.855835C 136.294,-0.807617 57.2188,1.03156 50.4478,0.181641C 43.6767,-0.668274 22.8372,1.63391 22.8372,1.63391C 22.8372,1.63391 13.7295,4.80432 8.69278,9.57819C 3.65604,14.3521 0.524048,28.763 0.232605,34.8533C -0.0588379,40.9435 0.0553894,78.0583 0.0553894,78.0583L 0,110.774 Z "/>
	</g>
</svg>
