<?xml version="1.0" encoding="utf-8"?>
<!DOCTYPE svg PUBLIC "-//W3C//DTD SVG 1.1//EN" "http://www.w3.org/Graphics/SVG/1.1/DTD/svg11.dtd">
<svg xmlns="http://www.w3.org/2000/svg" xmlns:xlink="http://www.w3.org/1999/xlink" version="1.1" baseProfile="full" width="251" height="251" viewBox="0 0 251.00 251.00" enable-background="new 0 0 251.00 251.00" xml:space="preserve">
	<rect x="0.5" y="0.5" fill="#5190F4" fill-opacity="1" stroke-linejoin="round" stroke="#000000" stroke-opacity="1" width="250" height="250"/>
	<g>
		<path fill="#FFFFFF" fill-opacity="1" stroke-width="0.2" stroke-linejoin="round" d="M 192.184,80.2108C 192.184,80.2108 178.31,95.8201 171.938,98.3275C 163.17,101.777 158.775,101.642 152.854,101.687C 152.516,101.69 152.224,115.052 152.15,120.126C 152.076,125.2 152.02,135.312 152.02,135.312C 152.02,135.312 150.394,143.78 147.253,145.833C 144.112,147.887 143.279,149.584 140.298,150.453C 137.317,151.321 112.641,150.362 112.641,150.362L 85.0311,151.927C 85.0311,151.927 69.067,157.8 62.2234,169.521C 55.3798,181.243 55.6548,188.544 56.1738,190.062C 56.6927,191.58 116.732,191.302 116.732,191.302L 157.635,191.479C 157.635,191.479 170.129,192.088 181.539,180.5C 194.292,167.55 191.81,145.929 191.809,142.785C 191.809,141.899 192.432,80.4696 192.184,80.2108 Z "/>
		<path fill="#FFFFFF" fill-opacity="1" stroke-width="0.2" stroke-linejoin="round" d="M 55.7641,165.23C 55.7641,165.23 68.5029,150.42 74.6921,148.906C 80.8812,147.393 89.5433,143.406 97.0891,143.886C 97.8787,143.937 96.9411,109.952 96.9411,109.952C 96.9411,109.952 97.667,101.717 103.842,98.3998C 110.018,95.0828 104.619,96.7027 109.234,95.8781C 113.851,95.0533 157.027,94.6089 157.027,94.6089C 160.751,95.0876 178.635,89.5386 185.283,78.0724C 192.245,66.0656 191.68,62.416 191.986,55.312C 192.058,53.6486 112.983,55.4877 106.212,54.6378C 99.4409,53.7879 78.6013,56.0901 78.6013,56.0901C 78.6013,56.0901 69.4937,59.2605 64.4569,64.0344C 59.4202,68.8082 56.2882,83.2191 55.9967,89.3094C 55.7053,95.3997 55.8195,132.515 55.8195,132.515L 55.7641,165.23 Z "/>
	</g>
</svg>
