<?xml version="1.0" encoding="utf-8"?>
<!DOCTYPE svg PUBLIC "-//W3C//DTD SVG 1.1//EN" "http://www.w3.org/Graphics/SVG/1.1/DTD/svg11.dtd">
<svg xmlns="http://www.w3.org/2000/svg" xmlns:xlink="http://www.w3.org/1999/xlink" version="1.1" baseProfile="full" width="656.467" height="293.088" viewBox="0 0 656.47 293.09" enable-background="new 0 0 656.47 293.09" xml:space="preserve">
	<rect x="0.5" y="0.499969" fill="#5190F4" fill-opacity="1" stroke-linejoin="round" stroke="#000000" stroke-opacity="1" width="655.467" height="292.088"/>
	<g>
		<path fill="#FFFFFF" fill-opacity="1" stroke-width="0.2" stroke-linejoin="round" d="M 202.052,105.255C 202.052,105.255 188.179,120.864 181.806,123.371C 173.039,126.821 168.643,126.686 162.722,126.731C 162.384,126.734 162.092,140.096 162.019,145.17C 161.945,150.244 161.889,160.356 161.889,160.356C 161.889,160.356 160.263,168.824 157.122,170.877C 153.981,172.931 153.148,174.628 150.167,175.497C 147.186,176.365 122.509,175.406 122.509,175.406L 94.8997,176.971C 94.8997,176.971 78.9355,182.844 72.092,194.565C 65.2484,206.286 65.5234,213.588 66.0424,215.106C 66.5613,216.624 126.6,216.346 126.6,216.346L 167.503,216.523C 167.503,216.523 179.997,217.132 191.408,205.544C 204.161,192.594 201.678,170.973 201.678,167.828C 201.678,166.943 202.301,105.513 202.052,105.255 Z "/>
		<path fill="#FFFFFF" fill-opacity="1" stroke-width="0.2" stroke-linejoin="round" d="M 65.6327,190.274C 65.6327,190.274 78.3715,175.463 84.5607,173.95C 90.7498,172.437 99.4119,168.449 106.958,168.93C 107.747,168.981 106.81,134.996 106.81,134.996C 106.81,134.996 107.536,126.76 113.711,123.444C 119.886,120.127 114.487,121.746 119.103,120.922C 123.719,120.097 166.896,119.653 166.896,119.653C 170.62,120.131 188.503,114.582 195.152,103.116C 202.113,91.1093 201.548,87.4598 201.855,80.3558C 201.927,78.6923 122.852,80.5316 116.081,79.6816C 109.309,78.8317 88.4699,81.1339 88.4699,81.1339C 88.4699,81.1339 79.3622,84.3043 74.3255,89.0781C 69.2888,93.852 66.1568,108.263 65.8653,114.353C 65.5739,120.443 65.6881,157.558 65.6881,157.558L 65.6327,190.274 Z "/>
	</g>
	<g>
		<path fill="#FFFFFF" fill-opacity="1" stroke-width="0.2" stroke-linejoin="round" d="M 237.678,202.663L 237.678,133.783L 220.744,133.967C 220.371,132.637 220.122,131.316 219.994,130.003C 219.867,128.691 219.803,127.431 219.803,126.223C 219.803,125.016 219.867,123.782 219.994,122.522C 220.122,121.262 220.371,119.915 220.744,118.48L 236.561,118.663C 235.816,112.941 235.444,108.645 235.444,105.775C 235.444,101.802 236.189,98.1359 237.678,94.7759C 239.168,91.416 241.27,88.524 243.985,86.1003C 246.699,83.6766 249.884,81.7778 253.54,80.4041C 257.195,79.0303 261.189,78.3434 265.52,78.3434C 274.301,78.3434 283.209,79.7609 292.245,82.5959C 292.245,88.5984 290.491,93.3409 286.982,96.8234C 280.181,94.5834 275.212,93.4634 272.076,93.4634C 263.57,93.4634 259.317,97.8647 259.317,106.667C 259.317,110.605 259.689,114.656 260.434,118.821L 284.718,118.48C 284.954,119.915 285.169,121.262 285.365,122.522C 285.561,123.782 285.659,125.016 285.659,126.223C 285.659,127.431 285.561,128.691 285.365,130.003C 285.169,131.316 284.954,132.637 284.718,133.967L 262.139,133.626L 262.139,202.663C 259.983,202.996 257.915,203.219 255.936,203.333C 253.956,203.447 251.947,203.503 249.909,203.503C 247.87,203.503 245.866,203.447 243.896,203.333C 241.927,203.219 239.854,202.996 237.678,202.663 Z "/>
		<path fill="#FFFFFF" fill-opacity="1" stroke-width="0.2" stroke-linejoin="round" d="M 335.786,187.543L 341.548,187.543C 342.94,190.641 343.636,193.633 343.636,196.521C 343.636,199.408 343.44,201.517 343.048,202.847C 335.365,203.845 329.249,204.343 324.702,204.343C 317.391,204.343 312.036,202.672 308.635,199.33C 305.235,195.987 303.534,190.746 303.534,183.606L 303.534,79.5247L 304.887,78.3434L 314.442,78.3434C 319.4,78.3434 322.899,79.3934 324.937,81.4934C 326.976,83.5934 327.995,87.1459 327.995,92.1509L 327.995,179.695C 327.995,184.927 330.592,187.543 335.786,187.543 Z "/>
		<path fill="#FFFFFF" fill-opacity="1" stroke-width="0.2" stroke-linejoin="round" d="M 431.219,126.328C 440.176,134.221 444.654,145.666 444.654,160.663C 444.654,167.331 443.709,173.36 441.817,178.75C 439.926,184.14 437.177,188.725 433.57,192.505C 429.964,196.285 425.51,199.203 420.208,201.259C 414.906,203.315 408.914,204.343 402.23,204.343C 395.527,204.343 389.559,203.315 384.325,201.259C 379.092,199.203 374.672,196.285 371.066,192.505C 367.46,188.725 364.711,184.14 362.819,178.75C 360.928,173.36 359.982,167.331 359.982,160.663C 359.982,147.223 363.642,136.583 370.963,128.743C 378.284,120.903 388.706,116.983 402.23,116.983C 414.088,116.983 423.751,120.098 431.219,126.328 Z M 402.23,132.103C 391.626,132.103 386.325,141.65 386.325,160.742C 386.325,179.73 391.626,189.223 402.23,189.223C 412.951,189.223 418.312,179.73 418.312,160.742C 418.312,141.65 412.951,132.103 402.23,132.103 Z "/>
		<path fill="#FFFFFF" fill-opacity="1" stroke-width="0.2" stroke-linejoin="round" d="M 476.877,192.478L 457.825,119.687C 462.706,117.885 467.126,116.983 471.085,116.983C 475.044,116.983 477.93,117.749 479.743,119.28C 481.556,120.812 482.776,123.161 483.403,126.328L 490.665,157.618C 493.213,168.731 495.065,177.857 496.222,184.997C 496.477,185.907 496.986,186.362 497.751,186.362L 510.863,119.661C 514.744,118.996 519.634,118.663 525.534,118.663C 531.433,118.663 536.206,118.996 539.852,119.661L 552.993,185.023C 553.131,185.916 553.64,186.362 554.522,186.362C 556.815,174.602 558.785,165.047 560.432,157.697L 569.957,118.663C 572.584,117.981 576.317,117.64 581.159,117.64C 586,117.64 589.792,118.261 592.536,119.503L 593.301,120.868L 570.516,202.663C 566.38,203.223 561.02,203.503 554.434,203.503C 547.848,203.503 543.36,202.83 540.969,201.482C 538.578,200.135 537.01,197.273 536.265,192.898L 532.06,172.187C 529.512,159.272 527.474,148.151 525.945,138.823L 524.799,138.823C 523.917,144.668 521.819,155.728 518.507,172.003L 512.039,202.663C 507.649,203.223 502.195,203.503 495.678,203.503C 489.161,203.503 484.682,202.768 482.242,201.298C 479.802,199.828 478.013,196.888 476.877,192.478 Z "/>
	</g>
</svg>
