<?xml version="1.0" encoding="utf-8"?>
<!DOCTYPE svg PUBLIC "-//W3C//DTD SVG 1.1//EN" "http://www.w3.org/Graphics/SVG/1.1/DTD/svg11.dtd">
<svg xmlns="http://www.w3.org/2000/svg" xmlns:xlink="http://www.w3.org/1999/xlink" version="1.1" baseProfile="full" width="655.467" height="292.088" viewBox="0 0 655.47 292.09" enable-background="new 0 0 655.47 292.09" xml:space="preserve">
	<rect x="0" y="-3.05176e-005" fill="#5190F4" fill-opacity="0" stroke-width="0.2" stroke-linejoin="round" width="655.467" height="292.088"/>
	<g>
		<path fill="#5190F4" fill-opacity="1" stroke-width="0.2" stroke-linejoin="round" d="M 201.552,104.755C 201.552,104.755 187.679,120.364 181.306,122.871C 172.539,126.321 168.143,126.186 162.222,126.231C 161.884,126.234 161.592,139.596 161.518,144.67C 161.445,149.744 161.388,159.856 161.388,159.856C 161.388,159.856 159.763,168.324 156.621,170.377C 153.481,172.431 152.648,174.128 149.667,174.997C 146.686,175.865 122.009,174.906 122.009,174.906L 94.3996,176.471C 94.3996,176.471 78.4354,182.344 71.5919,194.065C 64.7484,205.786 65.0233,213.088 65.5423,214.606C 66.0613,216.124 126.1,215.846 126.1,215.846L 167.003,216.023C 167.003,216.023 179.497,216.632 190.908,205.044C 203.661,192.094 201.178,170.473 201.178,167.328C 201.178,166.443 201.801,105.013 201.552,104.755 Z "/>
		<path fill="#5190F4" fill-opacity="1" stroke-width="0.2" stroke-linejoin="round" d="M 65.1326,189.774C 65.1326,189.774 77.8715,174.963 84.0606,173.45C 90.2497,171.937 98.9119,167.949 106.458,168.43C 107.247,168.481 106.31,134.496 106.31,134.496C 106.31,134.496 107.036,126.26 113.211,122.944C 119.386,119.627 113.987,121.246 118.603,120.422C 123.219,119.597 166.396,119.153 166.396,119.153C 170.12,119.631 188.003,114.082 194.651,102.616C 201.613,90.6093 201.048,86.9598 201.355,79.8558C 201.427,78.1923 122.351,80.0315 115.58,79.1816C 108.809,78.3317 87.9698,80.6339 87.9698,80.6339C 87.9698,80.6339 78.8621,83.8043 73.8254,88.5781C 68.7887,93.352 65.6567,107.763 65.3652,113.853C 65.0738,119.943 65.188,157.058 65.188,157.058L 65.1326,189.774 Z "/>
	</g>
	<g>
		<path fill="#5190F4" fill-opacity="1" stroke-width="0.2" stroke-linejoin="round" d="M 237.178,202.163L 237.178,133.283L 220.244,133.467C 219.871,132.137 219.621,130.816 219.494,129.503C 219.367,128.191 219.303,126.931 219.303,125.723C 219.303,124.516 219.367,123.282 219.494,122.022C 219.621,120.762 219.871,119.415 220.244,117.98L 236.061,118.163C 235.316,112.441 234.944,108.145 234.944,105.275C 234.944,101.302 235.689,97.6359 237.178,94.2759C 238.668,90.9159 240.77,88.024 243.484,85.6003C 246.199,83.1765 249.384,81.2778 253.039,79.9041C 256.695,78.5303 260.688,77.8434 265.02,77.8434C 273.801,77.8434 282.709,79.261 291.745,82.0959C 291.745,88.0984 289.991,92.8409 286.482,96.3234C 279.681,94.0834 274.712,92.9634 271.576,92.9634C 263.07,92.9634 258.817,97.3647 258.817,106.167C 258.817,110.105 259.189,114.156 259.934,118.321L 284.218,117.98C 284.453,119.415 284.669,120.762 284.865,122.022C 285.061,123.282 285.159,124.516 285.159,125.723C 285.159,126.931 285.061,128.191 284.865,129.503C 284.669,130.816 284.453,132.137 284.218,133.467L 261.639,133.126L 261.639,202.163C 259.483,202.496 257.415,202.719 255.436,202.833C 253.456,202.947 251.447,203.003 249.409,203.003C 247.37,203.003 245.366,202.947 243.396,202.833C 241.426,202.719 239.354,202.496 237.178,202.163 Z "/>
		<path fill="#5190F4" fill-opacity="1" stroke-width="0.2" stroke-linejoin="round" d="M 335.286,187.043L 341.048,187.043C 342.44,190.141 343.136,193.133 343.136,196.021C 343.136,198.908 342.94,201.017 342.548,202.347C 334.865,203.345 328.749,203.843 324.202,203.843C 316.891,203.843 311.536,202.172 308.135,198.83C 304.734,195.487 303.034,190.246 303.034,183.106L 303.034,79.0247L 304.386,77.8434L 313.941,77.8434C 318.9,77.8434 322.399,78.8934 324.437,80.9934C 326.476,83.0934 327.495,86.6459 327.495,91.6509L 327.495,179.195C 327.495,184.427 330.092,187.043 335.286,187.043 Z "/>
		<path fill="#5190F4" fill-opacity="1" stroke-width="0.2" stroke-linejoin="round" d="M 430.718,125.828C 439.676,133.721 444.154,145.166 444.154,160.163C 444.154,166.831 443.208,172.86 441.317,178.25C 439.426,183.64 436.677,188.225 433.07,192.005C 429.464,195.785 425.01,198.703 419.708,200.759C 414.406,202.815 408.414,203.843 401.73,203.843C 395.027,203.843 389.058,202.815 383.825,200.759C 378.592,198.703 374.172,195.785 370.566,192.005C 366.959,188.225 364.211,183.64 362.319,178.25C 360.428,172.86 359.482,166.831 359.482,160.163C 359.482,146.723 363.142,136.083 370.463,128.243C 377.784,120.403 388.206,116.483 401.73,116.483C 413.588,116.483 423.251,119.598 430.718,125.828 Z M 401.73,131.603C 391.126,131.603 385.824,141.15 385.824,160.242C 385.824,179.23 391.126,188.723 401.73,188.723C 412.451,188.723 417.812,179.23 417.812,160.242C 417.812,141.15 412.451,131.603 401.73,131.603 Z "/>
		<path fill="#5190F4" fill-opacity="1" stroke-width="0.2" stroke-linejoin="round" d="M 476.376,191.978L 457.325,119.187C 462.206,117.385 466.625,116.483 470.585,116.483C 474.544,116.483 477.43,117.249 479.243,118.78C 481.056,120.312 482.276,122.661 482.903,125.828L 490.165,157.118C 492.713,168.231 494.565,177.357 495.722,184.497C 495.977,185.407 496.486,185.862 497.25,185.862L 510.363,119.161C 514.244,118.496 519.134,118.163 525.034,118.163C 530.933,118.163 535.706,118.496 539.351,119.161L 552.493,184.523C 552.63,185.416 553.14,185.862 554.022,185.862C 556.315,174.102 558.285,164.547 559.931,157.197L 569.457,118.163C 572.083,117.481 575.817,117.14 580.658,117.14C 585.5,117.14 589.292,117.761 592.036,119.003L 592.801,120.368L 570.016,202.163C 565.88,202.723 560.519,203.003 553.934,203.003C 547.348,203.003 542.86,202.33 540.469,200.982C 538.077,199.635 536.509,196.773 535.765,192.398L 531.56,171.687C 529.012,158.772 526.974,147.651 525.445,138.323L 524.299,138.323C 523.417,144.168 521.319,155.228 518.007,171.503L 511.539,202.163C 507.148,202.723 501.695,203.003 495.178,203.003C 488.661,203.003 484.182,202.268 481.742,200.798C 479.302,199.328 477.513,196.388 476.376,191.978 Z "/>
	</g>
</svg>
