<?xml version="1.0" encoding="utf-8"?>
<!DOCTYPE svg PUBLIC "-//W3C//DTD SVG 1.1//EN" "http://www.w3.org/Graphics/SVG/1.1/DTD/svg11.dtd">
<svg xmlns="http://www.w3.org/2000/svg" xmlns:xlink="http://www.w3.org/1999/xlink" version="1.1" baseProfile="full" width="249.5" height="101" viewBox="0 0 249.50 101.00" enable-background="new 0 0 249.50 101.00" xml:space="preserve">
	<rect x="0" y="0.500031" fill="#5190F4" fill-opacity="1" stroke-linejoin="round" width="100" height="100"/>
	<g>
		<path fill="#FFFFFF" fill-opacity="1" stroke-width="0.2" stroke-linejoin="round" d="M 76.6735,32.3843C 76.6735,32.3843 71.1242,38.628 68.5751,39.631C 65.0682,41.0108 63.31,40.9567 60.9416,40.9749C 60.8063,40.976 60.6895,46.3208 60.66,48.3504C 60.6305,50.3799 60.608,54.4247 60.608,54.4247C 60.608,54.4247 59.9576,57.812 58.7012,58.6334C 57.4448,59.4547 57.1118,60.1338 55.9194,60.4812C 54.727,60.8285 44.8564,60.445 44.8564,60.445L 33.8125,61.071C 33.8125,61.071 27.4268,63.42 24.6894,68.1085C 21.952,72.797 22.062,75.7177 22.2696,76.3249C 22.4772,76.9321 46.4927,76.8207 46.4927,76.8207L 62.8539,76.8915C 62.8539,76.8915 67.8515,77.1351 72.4157,72.5002C 77.5169,67.32 76.5238,58.6717 76.5238,57.4138C 76.5238,57.0597 76.7729,32.4878 76.6735,32.3843 Z "/>
		<path fill="#FFFFFF" fill-opacity="1" stroke-width="0.2" stroke-linejoin="round" d="M 22.1057,66.3921C 22.1057,66.3921 27.2012,60.4679 29.6769,59.8626C 32.1525,59.2573 35.6174,57.6622 38.6357,57.8546C 38.9515,57.8747 38.5764,44.281 38.5764,44.281C 38.5764,44.281 38.8669,40.9867 41.3369,39.6599C 43.8071,38.3331 41.6474,38.981 43.4938,38.6512C 45.3403,38.3213 62.6109,38.1436 62.6109,38.1436C 64.1006,38.3351 71.2539,36.1154 73.9132,31.529C 76.6979,26.7262 76.472,25.2664 76.5946,22.4248C 76.6233,21.7594 44.9932,22.4951 42.2848,22.1551C 39.5764,21.8152 31.2405,22.736 31.2405,22.736C 31.2405,22.736 27.5975,24.0042 25.5828,25.9137C 23.5681,27.8233 22.3153,33.5876 22.1987,36.0238C 22.0822,38.4599 22.1278,53.3058 22.1278,53.3058L 22.1057,66.3921 Z "/>
	</g>
	<rect x="99" y="0.500031" fill="#FFFFFF" fill-opacity="1" stroke-linejoin="round" stroke="#5190F4" stroke-opacity="1" width="150" height="100"/>
	<g>
		<path fill="#5190F4" fill-opacity="1" stroke-linejoin="round" d="M 121.693,73.24L 121.693,82.6L 118.92,82.6L 118.92,58.3333L 125.615,58.3333C 128.222,58.3333 130.243,58.9571 131.676,60.2048C 133.11,61.4524 133.827,63.2119 133.827,65.4833C 133.827,67.7583 133.025,69.6198 131.422,71.0679C 129.818,72.516 127.653,73.24 124.927,73.24L 121.693,73.24 Z M 121.693,60.76L 121.693,70.8133L 124.667,70.8133C 126.632,70.8133 128.129,70.3601 129.16,69.4537C 130.191,68.5473 130.707,67.2672 130.707,65.6133C 130.707,62.3777 128.813,60.76 125.025,60.76L 121.693,60.76 Z "/>
		<path fill="#5190F4" fill-opacity="1" stroke-linejoin="round" d="M 149.6,82.6L 146.827,82.6L 146.827,79.74L 146.756,79.74C 145.532,81.8777 143.727,82.9466 141.34,82.9466C 139.585,82.9466 138.211,82.488 137.22,81.5708C 136.229,80.6536 135.733,79.4348 135.733,77.9146C 135.733,74.6609 137.671,72.7687 141.545,72.2379L 146.827,71.5066C 146.827,68.7333 145.619,67.3466 143.203,67.3466C 141.083,67.3466 139.171,68.04 137.467,69.4266L 137.467,66.5612C 139.189,65.4671 141.173,64.92 143.42,64.92C 147.54,64.92 149.6,67.0686 149.6,71.3658L 149.6,82.6 Z M 146.827,73.5866L 142.52,74.1717C 141.195,74.3522 140.195,74.6745 139.52,75.1385C 138.844,75.6025 138.507,76.4232 138.507,77.6004C 138.507,78.4598 138.818,79.1613 139.441,79.7048C 140.064,80.2482 140.892,80.52 141.925,80.52C 143.344,80.52 144.516,80.0307 145.44,79.0521C 146.364,78.0735 146.827,76.8348 146.827,75.3362L 146.827,73.5866 Z "/>
		<path fill="#5190F4" fill-opacity="1" stroke-linejoin="round" d="M 163.813,68.04C 163.329,67.5778 162.633,67.3466 161.723,67.3466C 160.542,67.3466 159.555,67.9118 158.762,69.0421C 157.97,70.1723 157.573,71.7125 157.573,73.6625L 157.573,82.6L 154.8,82.6L 154.8,65.2666L 157.573,65.2666L 157.573,68.6629L 157.638,68.6629C 158.032,67.4857 158.634,66.5675 159.445,65.9085C 160.255,65.2495 161.161,64.92 162.161,64.92C 162.88,64.92 163.431,64.9994 163.813,65.1583L 163.813,68.04 Z "/>
		<path fill="#5190F4" fill-opacity="1" stroke-linejoin="round" d="M 176.12,82.3671C 175.452,82.7534 174.573,82.9466 173.482,82.9466C 170.387,82.9466 168.84,81.2639 168.84,77.8983L 168.84,67.6933L 165.72,67.6933L 165.72,65.2666L 168.84,65.2666L 168.84,60.9767L 171.613,60.0667L 171.613,65.2666L 176.12,65.2666L 176.12,67.6933L 171.613,67.6933L 171.613,77.3296C 171.613,78.4779 171.817,79.2967 172.225,79.786C 172.633,80.2753 173.309,80.52 174.251,80.52C 174.973,80.52 175.596,80.2888 176.12,79.8266L 176.12,82.3671 Z "/>
		<path fill="#5190F4" fill-opacity="1" stroke-linejoin="round" d="M 194.147,82.6L 191.373,82.6L 191.373,72.812C 191.373,69.1685 190.003,67.3466 187.262,67.3466C 185.847,67.3466 184.676,67.863 183.749,68.8958C 182.823,69.9286 182.36,71.234 182.36,72.812L 182.36,82.6L 179.587,82.6L 179.587,65.2666L 182.36,65.2666L 182.36,68.2946L 182.43,68.2946C 183.759,66.0448 185.682,64.92 188.199,64.92C 190.124,64.92 191.596,65.5302 192.616,66.7508C 193.637,67.9713 194.147,69.7336 194.147,72.0375L 194.147,82.6 Z "/>
		<path fill="#5190F4" fill-opacity="1" stroke-linejoin="round" d="M 213.213,74.6266L 201.08,74.6266C 201.127,76.508 201.649,77.9606 202.645,78.9843C 203.642,80.0081 205.014,80.52 206.762,80.52C 208.727,80.52 210.53,79.9422 212.173,78.7867L 212.173,81.3271C 210.657,82.4068 208.649,82.9466 206.15,82.9466C 203.709,82.9466 201.791,82.1648 200.397,80.6012C 199.004,79.0376 198.307,76.8366 198.307,73.9983C 198.307,71.3189 199.061,69.136 200.568,67.4496C 202.076,65.7632 203.949,64.92 206.188,64.92C 208.423,64.92 210.153,65.6485 211.377,67.1056C 212.601,68.5627 213.213,70.5876 213.213,73.1804L 213.213,74.6266 Z M 210.44,72.2C 210.429,70.6689 210.045,69.4772 209.286,68.625C 208.528,67.7727 207.473,67.3466 206.123,67.3466C 204.819,67.3466 203.712,67.7944 202.802,68.69C 201.892,69.5855 201.331,70.7555 201.118,72.2L 210.44,72.2 Z "/>
		<path fill="#5190F4" fill-opacity="1" stroke-linejoin="round" d="M 226.387,68.04C 225.903,67.5778 225.206,67.3466 224.296,67.3466C 223.115,67.3466 222.128,67.9118 221.336,69.0421C 220.543,70.1723 220.147,71.7125 220.147,73.6625L 220.147,82.6L 217.373,82.6L 217.373,65.2666L 220.147,65.2666L 220.147,68.6629L 220.212,68.6629C 220.605,67.4857 221.207,66.5675 222.018,65.9085C 222.829,65.2495 223.734,64.92 224.735,64.92C 225.453,64.92 226.004,64.9994 226.387,65.1583L 226.387,68.04 Z "/>
	</g>
</svg>
